<svg width="128" height="128" viewBox="0 0 128 128" fill="none" xmlns="http://www.w3.org/2000/svg">
<g clip-path="url(#clip0_2179_4530)">
<path fill-rule="evenodd" clip-rule="evenodd" d="M16 0C7.16 0 0 7.16 0 16V112C0 120.84 7.16 128 16 128H112C120.84 128 128 120.84 128 112V16C128 7.16 120.84 0 112 0H16ZM52.12 95.032L68.12 31.032L75.88 32.968L59.88 96.968L52.12 95.032ZM37.168 45.176L21.168 61.176L18.344 64L21.176 66.832L37.176 82.832L42.832 77.176L29.656 64L42.832 50.832L37.168 45.176ZM90.832 45.176L106.832 61.176L109.656 64L106.832 66.832L90.832 82.832L85.176 77.176L98.344 64L85.176 50.832L90.832 45.176Z" fill="black"/>
</g>
<defs>
<clipPath id="clip0_2179_4530">
<rect width="128" height="128" fill="white"/>
</clipPath>
</defs>
</svg>
